<?xml version="1.0" standalone="no"?>
<!DOCTYPE svg PUBLIC "-//W3C//DTD SVG 20010904//EN"
 "http://www.w3.org/TR/2001/REC-SVG-20010904/DTD/svg10.dtd">
<svg version="1.0" xmlns="http://www.w3.org/2000/svg"
 width="300.000000pt" height="300.000000pt" viewBox="0 0 300.000000 300.000000"
 preserveAspectRatio="xMidYMid meet">
<metadata>
Created by potrace 1.11, written by Peter Selinger 2001-2013
</metadata>
<g transform="translate(0.000000,300.000000) scale(0.100000,-0.100000)"
fill="#000000" stroke="none">
<path d="M930 2910 l0 -90 -185 0 -185 0 0 -95 0 -95 -95 0 -95 0 0 -95 0 -95
-95 0 -95 0 0 -185 0 -185 -90 0 -90 0 0 -565 0 -565 90 0 90 0 0 -185 0 -185
95 0 95 0 0 -95 0 -95 95 0 95 0 0 -95 0 -95 185 0 185 0 0 -95 0 -95 565 0
565 0 0 95 0 95 185 0 185 0 0 95 0 95 95 0 95 0 0 95 0 95 95 0 95 0 0 185 0
185 95 0 95 0 0 565 0 565 -95 0 -95 0 0 185 0 185 -95 0 -95 0 0 95 0 95 -95
0 -95 0 0 95 0 95 -185 0 -185 0 0 90 0 90 -565 0 -565 0 0 -90z m1130 -185
l0 -95 185 0 185 0 0 -95 0 -95 95 0 95 0 0 -185 0 -185 -190 0 -190 0 0 95 0
95 95 0 95 0 0 90 0 90 -280 0 -280 0 0 95 0 95 -190 0 -190 0 0 -185 0 -185
-90 0 -90 0 0 -190 0 -190 90 0 90 0 0 95 0 95 95 0 95 0 0 -95 0 -95 95 0 95
0 0 -95 0 -95 -280 0 -280 0 0 -185 0 -185 90 0 90 0 0 -190 0 -190 95 0 95 0
0 95 0 95 95 0 95 0 0 -95 0 -95 95 0 95 0 0 -90 0 -90 185 0 185 0 0 90 0 90
95 0 95 0 0 -185 0 -185 -95 0 -95 0 0 -95 0 -95 -280 0 -280 0 0 190 0 190
-280 0 -280 0 0 -95 0 -95 -95 0 -95 0 0 -190 0 -190 -95 0 -95 0 0 95 0 95
-185 0 -185 0 0 95 0 95 -95 0 -95 0 0 185 0 185 -95 0 -95 0 0 565 0 565 95
0 95 0 0 185 0 185 95 0 95 0 0 95 0 95 185 0 185 0 0 95 0 95 565 0 565 0 0
-95z"/>
<path d="M740 1785 l0 -95 95 0 95 0 0 -185 0 -185 -95 0 -95 0 0 95 0 95 -90
0 -90 0 0 90 0 90 -95 0 -95 0 0 -185 0 -185 185 0 185 0 0 -95 0 -95 -90 0
-90 0 0 -95 0 -95 375 0 375 0 0 190 0 190 -95 0 -95 0 0 280 0 280 -190 0
-190 0 0 -95z"/>
</g>
</svg>
